<?xml version="1.0" encoding="utf-8"?>
<!-- Generator: Adobe Illustrator 26.0.3, SVG Export Plug-In . SVG Version: 6.00 Build 0)  -->
<svg version="1.1" id="Слой_1" xmlns="http://www.w3.org/2000/svg" xmlns:xlink="http://www.w3.org/1999/xlink" x="0px" y="0px"
	 viewBox="0 0 194 101" style="enable-background:new 0 0 194 101;" xml:space="preserve">
<style type="text/css">
	.st0{fill:#E9E9E9;}
</style>
<path class="st0" d="M91.9,31.7c-0.4-3.1-4.8-4.7-7-2.3c-2,2.1-1.8,5.7-0.6,8.2c0.9,2.2,3.6,2,5.5,1.7
	C92.7,37.9,92.2,34.3,91.9,31.7z M91.9,31.7c-0.4-3.1-4.8-4.7-7-2.3c-2,2.1-1.8,5.7-0.6,8.2c0.9,2.2,3.6,2,5.5,1.7
	C92.7,37.9,92.2,34.3,91.9,31.7z M91.9,31.7c-0.4-3.1-4.8-4.7-7-2.3c-2,2.1-1.8,5.7-0.6,8.2c0.9,2.2,3.6,2,5.5,1.7
	C92.7,37.9,92.2,34.3,91.9,31.7z M91.9,31.7c-0.4-3.1-4.8-4.7-7-2.3c-2,2.1-1.8,5.7-0.6,8.2c0.9,2.2,3.6,2,5.5,1.7
	C92.7,37.9,92.2,34.3,91.9,31.7z M91.9,31.7c-0.4-3.1-4.8-4.7-7-2.3c-2,2.1-1.8,5.7-0.6,8.2c0.9,2.2,3.6,2,5.5,1.7
	C92.7,37.9,92.2,34.3,91.9,31.7z M91.9,31.7c-0.4-3.1-4.8-4.7-7-2.3c-2,2.1-1.8,5.7-0.6,8.2c0.9,2.2,3.6,2,5.5,1.7
	C92.7,37.9,92.2,34.3,91.9,31.7z M91.9,31.7c-0.4-3.1-4.8-4.7-7-2.3c-2,2.1-1.8,5.7-0.6,8.2c0.9,2.2,3.6,2,5.5,1.7
	C92.7,37.9,92.2,34.3,91.9,31.7z M177.4,23.2c-2.3-0.4-5.6-0.6-6.4,2.3c-1,2.2,1.9,2.8,3.1,3.8c1.7-0.7,3.5-1.5,5.1-2.4
	C178.8,25.5,178.2,24.3,177.4,23.2z M177.4,23.2c-2.3-0.4-5.6-0.6-6.4,2.3c-1,2.2,1.9,2.8,3.1,3.8c1.7-0.7,3.5-1.5,5.1-2.4
	C178.8,25.5,178.2,24.3,177.4,23.2z M91.9,31.7c-0.4-3.1-4.8-4.7-7-2.3c-2,2.1-1.8,5.7-0.6,8.2c0.9,2.2,3.6,2,5.5,1.7
	C92.7,37.9,92.2,34.3,91.9,31.7z M91.9,31.7c-0.4-3.1-4.8-4.7-7-2.3c-2,2.1-1.8,5.7-0.6,8.2c0.9,2.2,3.6,2,5.5,1.7
	C92.7,37.9,92.2,34.3,91.9,31.7z M152.1,61.4c-0.6,1.2-1.2,2.5-1.8,3.8c2.8-0.1,5.6-0.5,8.3-1.3C158.4,60.2,154.7,60.8,152.1,61.4z
	 M177.4,23.2c-2.3-0.4-5.6-0.6-6.4,2.3c-1,2.2,1.9,2.8,3.1,3.8c1.7-0.7,3.5-1.5,5.1-2.4C178.8,25.5,178.2,24.3,177.4,23.2z
	 M177.4,23.2c-2.3-0.4-5.6-0.6-6.4,2.3c-1,2.2,1.9,2.8,3.1,3.8c1.7-0.7,3.5-1.5,5.1-2.4C178.8,25.5,178.2,24.3,177.4,23.2z
	 M152.1,61.4c-0.6,1.2-1.2,2.5-1.8,3.8c2.8-0.1,5.6-0.5,8.3-1.3C158.4,60.2,154.7,60.8,152.1,61.4z M91.9,31.7
	c-0.4-3.1-4.8-4.7-7-2.3c-2,2.1-1.8,5.7-0.6,8.2c0.9,2.2,3.6,2,5.5,1.7C92.7,37.9,92.2,34.3,91.9,31.7z M91.9,31.7
	c-0.4-3.1-4.8-4.7-7-2.3c-2,2.1-1.8,5.7-0.6,8.2c0.9,2.2,3.6,2,5.5,1.7C92.7,37.9,92.2,34.3,91.9,31.7z M111.5,64.3
	c-1.8-0.2-3.7-0.8-5.4,0c-2.4,2.1-1.8,5.6-1.3,8.3c1.2,3.5,6.9,3.4,7.9-0.1C113.8,69.7,112.8,66.8,111.5,64.3z M152.1,61.4
	c-0.6,1.2-1.2,2.5-1.8,3.8c2.8-0.1,5.6-0.5,8.3-1.3C158.4,60.2,154.7,60.8,152.1,61.4z M177.4,23.2c-2.3-0.4-5.6-0.6-6.4,2.3
	c-1,2.2,1.9,2.8,3.1,3.8c1.7-0.7,3.5-1.5,5.1-2.4C178.8,25.5,178.2,24.3,177.4,23.2z M177.4,23.2c-2.3-0.4-5.6-0.6-6.4,2.3
	c-1,2.2,1.9,2.8,3.1,3.8c1.7-0.7,3.5-1.5,5.1-2.4C178.8,25.5,178.2,24.3,177.4,23.2z M152.1,61.4c-0.6,1.2-1.2,2.5-1.8,3.8
	c2.8-0.1,5.6-0.5,8.3-1.3C158.4,60.2,154.7,60.8,152.1,61.4z M111.5,64.3c-1.8-0.2-3.7-0.8-5.4,0c-2.4,2.1-1.8,5.6-1.3,8.3
	c1.2,3.5,6.9,3.4,7.9-0.1C113.8,69.7,112.8,66.8,111.5,64.3z M91.9,31.7c-0.4-3.1-4.8-4.7-7-2.3c-2,2.1-1.8,5.7-0.6,8.2
	c0.9,2.2,3.6,2,5.5,1.7C92.7,37.9,92.2,34.3,91.9,31.7z M91.9,31.7c-0.4-3.1-4.8-4.7-7-2.3c-2,2.1-1.8,5.7-0.6,8.2
	c0.9,2.2,3.6,2,5.5,1.7C92.7,37.9,92.2,34.3,91.9,31.7z M111.5,64.3c-1.8-0.2-3.7-0.8-5.4,0c-2.4,2.1-1.8,5.6-1.3,8.3
	c1.2,3.5,6.9,3.4,7.9-0.1C113.8,69.7,112.8,66.8,111.5,64.3z M152.1,61.4c-0.6,1.2-1.2,2.5-1.8,3.8c2.8-0.1,5.6-0.5,8.3-1.3
	C158.4,60.2,154.7,60.8,152.1,61.4z M177.4,23.2c-2.3-0.4-5.6-0.6-6.4,2.3c-1,2.2,1.9,2.8,3.1,3.8c1.7-0.7,3.5-1.5,5.1-2.4
	C178.8,25.5,178.2,24.3,177.4,23.2z M177.4,23.2c-2.3-0.4-5.6-0.6-6.4,2.3c-1,2.2,1.9,2.8,3.1,3.8c1.7-0.7,3.5-1.5,5.1-2.4
	C178.8,25.5,178.2,24.3,177.4,23.2z M152.1,61.4c-0.6,1.2-1.2,2.5-1.8,3.8c2.8-0.1,5.6-0.5,8.3-1.3
	C158.4,60.2,154.7,60.8,152.1,61.4z M111.5,64.3c-1.8-0.2-3.7-0.8-5.4,0c-2.4,2.1-1.8,5.6-1.3,8.3c1.2,3.5,6.9,3.4,7.9-0.1
	C113.8,69.7,112.8,66.8,111.5,64.3z M91.9,31.7c-0.4-3.1-4.8-4.7-7-2.3c-2,2.1-1.8,5.7-0.6,8.2c0.9,2.2,3.6,2,5.5,1.7
	C92.7,37.9,92.2,34.3,91.9,31.7z M91.9,31.7c-0.4-3.1-4.8-4.7-7-2.3c-2,2.1-1.8,5.7-0.6,8.2c0.9,2.2,3.6,2,5.5,1.7
	C92.7,37.9,92.2,34.3,91.9,31.7z M111.5,64.3c-1.8-0.2-3.7-0.8-5.4,0c-2.4,2.1-1.8,5.6-1.3,8.3c1.2,3.5,6.9,3.4,7.9-0.1
	C113.8,69.7,112.8,66.8,111.5,64.3z M152.1,61.4c-0.6,1.2-1.2,2.5-1.8,3.8c2.8-0.1,5.6-0.5,8.3-1.3
	C158.4,60.2,154.7,60.8,152.1,61.4z M177.4,23.2c-2.3-0.4-5.6-0.6-6.4,2.3c-1,2.2,1.9,2.8,3.1,3.8c1.7-0.7,3.5-1.5,5.1-2.4
	C178.8,25.5,178.2,24.3,177.4,23.2z M177.4,23.2c-2.3-0.4-5.6-0.6-6.4,2.3c-1,2.2,1.9,2.8,3.1,3.8c1.7-0.7,3.5-1.5,5.1-2.4
	C178.8,25.5,178.2,24.3,177.4,23.2z M152.1,61.4c-0.6,1.2-1.2,2.5-1.8,3.8c2.8-0.1,5.6-0.5,8.3-1.3
	C158.4,60.2,154.7,60.8,152.1,61.4z M111.5,64.3c-1.8-0.2-3.7-0.8-5.4,0c-2.4,2.1-1.8,5.6-1.3,8.3c1.2,3.5,6.9,3.4,7.9-0.1
	C113.8,69.7,112.8,66.8,111.5,64.3z M91.9,31.7c-0.4-3.1-4.8-4.7-7-2.3c-2,2.1-1.8,5.7-0.6,8.2c0.9,2.2,3.6,2,5.5,1.7
	C92.7,37.9,92.2,34.3,91.9,31.7z M17.3,36.2c-1.3,0-2.6,0.1-3.9,0.4c-1.9,0.7-1.6,2.9-2.1,4.5c2.2,0.2,4.4,0,6.4,1
	C17.6,40.1,17.4,38.1,17.3,36.2z M26.2,36.1L26.2,36.1C26.2,36.1,26.2,36.1,26.2,36.1L26.2,36.1z M91.9,31.7c-0.4-3.1-4.8-4.7-7-2.3
	c-2,2.1-1.8,5.7-0.6,8.2c0.9,2.2,3.6,2,5.5,1.7C92.7,37.9,92.2,34.3,91.9,31.7z M111.5,64.3c-1.8-0.2-3.7-0.8-5.4,0
	c-2.4,2.1-1.8,5.6-1.3,8.3c1.2,3.5,6.9,3.4,7.9-0.1C113.8,69.7,112.8,66.8,111.5,64.3z M152.1,61.4c-0.6,1.2-1.2,2.5-1.8,3.8
	c2.8-0.1,5.6-0.5,8.3-1.3C158.4,60.2,154.7,60.8,152.1,61.4z M177.4,23.2c-2.3-0.4-5.6-0.6-6.4,2.3c-1,2.2,1.9,2.8,3.1,3.8
	c1.7-0.7,3.5-1.5,5.1-2.4C178.8,25.5,178.2,24.3,177.4,23.2z M177.4,23.2c-2.3-0.4-5.6-0.6-6.4,2.3c-1,2.2,1.9,2.8,3.1,3.8
	c1.7-0.7,3.5-1.5,5.1-2.4C178.8,25.5,178.2,24.3,177.4,23.2z M152.1,61.4c-0.6,1.2-1.2,2.5-1.8,3.8c2.8-0.1,5.6-0.5,8.3-1.3
	C158.4,60.2,154.7,60.8,152.1,61.4z M111.5,64.3c-1.8-0.2-3.7-0.8-5.4,0c-2.4,2.1-1.8,5.6-1.3,8.3c1.2,3.5,6.9,3.4,7.9-0.1
	C113.8,69.7,112.8,66.8,111.5,64.3z M91.9,31.7c-0.4-3.1-4.8-4.7-7-2.3c-2,2.1-1.8,5.7-0.6,8.2c0.9,2.2,3.6,2,5.5,1.7
	C92.7,37.9,92.2,34.3,91.9,31.7z M26.2,36.1L26.2,36.1C26.2,36.1,26.2,36.1,26.2,36.1L26.2,36.1z M13.4,36.6
	c-1.9,0.7-1.6,2.9-2.1,4.5c2.2,0.2,4.4,0,6.4,1c-0.2-2-0.3-3.9-0.4-5.9C16,36.2,14.7,36.3,13.4,36.6z M188.8,31.5
	c1.3-3.5,1.1-7.2,0-10.7c4.3-5.8,0-14-6.5-15.5c-5.9-1.6-12.6,2.4-13.9,8.5c-1.8,0.9-3.6,1.7-5.4,2.5c-6.2-4.8-14.7-4.3-21.8-1.8
	c-0.9-3.5-2.1-7.5-5.6-9.1c-3.4-2.2-7.7-1.6-11.1,0.3c-2.3,1.3-4.7-1-7.1-0.7c-2.8-0.4-4.8,1.7-7.2,2.8c-2.7-1.3-5.7-3.1-8.8-1.8
	c-5,1.9-9.9,6.1-10.2,11.8c-2.1-0.2-4.3-0.2-6.4-0.2c-1.3-4.4-2.8-9.2-6.5-12.1C72.6,0.8,65-0.3,58,0.1c-8.8,1.1-17.4,6.2-20.1,15.1
	c-1.8,7.5,0.3,16.7,7.5,20.5c-3.6,0-7.3,3.2-10.7,0.9c-2.2-3.5-1.6-8.9-6-10.8c-3.5-2.4-7.4-0.3-10.6,1.3C13,26.8,7.2,27.5,3.5,31.5
	c-6,6.4-3.2,18.5,5.5,21.1c0.1,2.3-0.2,4.7,1,6.8c1.2,2,3.5,3,5.3,4.4c6.6-1.8,13.5-1.1,20.2-1.1c1.3-0.7,2.6-1.3,3.8-2
	c1.3,0.4,2.7,0.8,4,1.2c0.4,2.4,1.2,4.6,2.2,6.8c-6.8,6.1-7.7,17.2-2,24.2c6.9,8.7,20,10.3,29.6,5.5c4.5-2.2,7.6-6.2,9.8-10.5
	c5.2,1.8,11.3,1.3,15.7-2.2c5,1.7,10.3,2.5,15.5,0.8c0.9,4.7,4.5,9.3,9.7,9.1c5.3-0.9,9.3-5.1,12.4-9.3c3-0.9,5.7-2.4,7.9-4.6
	c5.7,4.4,13.5,3.8,19.7,0.9c1.1,0.7,2.2,1.4,3.4,2.1c6.1-1.1,13.5-0.4,18.1-5.4c3.4-3,4.2-7.8,3.1-12c-1.5-4.4,0.1-9.3-2.6-13.4
	c4.2-2.9,8.2-7.2,7.7-12.7C194.3,37.2,191.4,34.1,188.8,31.5z M35.4,55.6c-0.7-0.1-2.1-0.4-2.9-0.6c1.1-2.9,1.9-6.3-0.1-9
	c-0.9,0.3-1.8,0.8-2.7,1.2c0,1.4,0.1,2.8,0.2,4.2c0.7,1.2,1.5,2.3,2.2,3.4c-2.4,0.3-4.8,0.5-7.2,0.6c0-0.4-0.1-1.2-0.2-1.5
	c0.6-1,1.2-1.9,1.8-2.8c-0.7-3.1-0.7-6.2-0.7-9.4c-3.5-0.8-0.4-3.7,0.3-5.6c-1.6,0.4-3.2,0.4-4.8,0.5c0.2,3.8,0.2,7.6,0.5,11.5
	c0.7,0.9,1.4,1.7,2.1,2.6c-1.9,2.6-3.8,5.9-7.5,5.6c0.7-4.1,2.9-8.6,0.1-12.4c-1.6,2.5-5.9,2.2-7.5-0.2c-2.3-2.6-1.8-7.2,1.1-9.2
	c3.5-2.5,8-1,12-1.4c1.4-1.6,3.2-2.6,5.4-2.2c0,1.8,0.3,4-1.5,5.1c0.7,0.3,2.2,0.8,2.9,1.1c0.4,2.1,0.4,4.2,0.5,6.3
	c2.2-1.1,4.6-1.5,6.8-0.1c0.2,1.9,0.4,3.8,0.6,5.8c0.6,0.8,1.2,1.7,1.9,2.6C37.8,53.1,36.6,54.4,35.4,55.6z M129.1,10.3
	c1.5-0.6,3.2-0.2,4.8-0.2c1.4,2.4,2.2,6.1-0.3,8.1c-2,0.8-5,0.6-5.9-1.6C126.2,14.5,127.6,11.9,129.1,10.3z M119.4,10.5
	c2.1,4.8,1.8,10.1,2.3,15.2c0.4,4.5-0.9,9.9,2.7,13.4h3.6c0.5-0.6,1.4-1.7,1.9-2.3c0-3,0-6-0.1-9.1c-0.9-0.2-2.7-0.6-3.6-0.9
	c0.8-3.6,4.1-5.7,7.3-7.1c2.2,5.1,1.2,10.8,2.2,16.1c1.1,1.1,2.2,2.2,3.2,3.3c0,0.5-0.1,1.5-0.1,1.9c-3.2,0.6-6.5,0.9-9.8,0.9
	c-1-0.8-2-1.5-3-2.3c-2.5,4.5-8.4,3.1-12.5,2.2c0.9-2.4,2.9-4.5,2.5-7.3c-0.2-4.3-0.5-8.7-0.7-13c-0.2-1-0.3-2.1-0.4-3.1
	c-2.1-0.4-2.4-2.2-2.5-4C114.6,12.9,116.7,11,119.4,10.5z M98.8,16.5c1.3-2.8,4.2-4.2,6.8-5.4c3.6,8.2,1.5,17.5,3.2,26.1
	c0.9,1,1.9,2,2.9,3c0,0.5,0.1,1.6,0.1,2.2c-3.5,1.6-7.4,1.2-11.2,1c0-0.6-0.1-1.8-0.1-2.4c0.7-1.1,1.4-2.2,2-3.4
	c-0.1-5.9-0.9-11.8-0.8-17.7C100.7,18.7,98.2,18.4,98.8,16.5z M83.7,24.2c4.4-2.2,10.4-0.7,12.7,3.8c2.1,4.5,2.2,10.5-1.6,14.2
	c-2.8,3-7.5,2.7-11.1,1.8C76.1,40.7,76,27.6,83.7,24.2z M40.7,51.4c-1.8-3.3-0.4-6.9,2.2-9.2c3.1-0.6,7.3-0.3,8,3.5
	c1.2,4.3-4.6,3.8-7.3,3.9c0.1,0.4,0.4,1.3,0.6,1.8c2.3,0,4.4-1.1,6.7-1.3C51.6,55.4,42.1,56.2,40.7,51.4z M78.7,82.7
	c-3,11.5-19.2,14.7-27.5,7c-5.2-4.3-5.2-14.2,1-17.5c3.3-2,8.1-2,10.6,1.2c-0.5,1.1-0.9,2.2-1.4,3.3c-2.2,0.8-5,0.9-6.5,2.9
	c-0.8,2.8,0.4,6.2,3.2,7.3c3.8,1.7,8.9,1.3,11.8-1.8c3.4-3.8,2.4-10.5-2.2-13c-4.5-2.4-9.7-3.2-13.9-6.1c-3.3-2.3-3.9-7.2-1.5-10.4
	c2.3-3.7,6.9-5,11-4.5c2.1,0.3,4-2.4,6-0.8c2.7,2.2,4.3,5.8,4.2,9.3c-0.9,0.7-1.9,1.2-2.9,1.8c-2.5-2.1-5-4.3-8.2-5.4
	c-1.2,0.4-2.5,0.9-3.7,1.3C58.6,59.1,57,61.2,59,62c5.2,3,11.5,3.7,16.3,7.6C78.1,73.4,79.1,78.1,78.7,82.7z M96.8,79.2
	c-2.7,2.5-6.6,2.7-10,2c-7.5-2.7-9.1-14.2-3-19.2c1.9-1.6,4.4-2,6.7-2.7c2.1,0.7,4.5,1.2,6.1,2.8c1.2,1.6,0.9,4.1-1,5.1
	c-2.7-1.1-5.4-2.6-8.5-2.1c-1.7,3-2.5,7.5,0.7,9.9c3.4,1.7,6.6-1.8,10.1-1.2C97.9,75.6,98.7,78.1,96.8,79.2z M81.3,54.6
	c-6.8-3.5-11.1-10.3-13.9-17.2c-1.1-2.8-2-5.6-2.9-8.4c-0.4,0.1-1.3,0.2-1.7,0.2c0.1,1.7,0.2,3.3,0.3,5c1.1,0.5,2.1,1,3.2,1.5
	c-0.3,1.2-0.6,2.5-0.9,3.7c-1.9,3.4-4.9,6.1-8.3,8c-1-0.9-2.2-1.6-2.9-2.9c0.8-2.3,2.6-4.2,2.7-6.7c0.1-4.3-0.5-8.7-0.4-13
	c0.1-2.6-1.7-4.6-3.1-6.5c2.1-2.9,5.7-2.4,8.9-2.3c0.3,0.5,0.6,1.1,1,1.6c-0.4,2.3-0.6,4.6-0.7,6.9c2.8,0,6.3,0.4,8.2-2.3
	c2.9-3.3,0.2-8.3-3.6-9.5c-5.8-2-14.2-0.5-16.5,5.9c1,3.6,4.5,6.2,4.3,10.2c-1.5,0.6-3.2,1.9-4.9,1c-4.7-2.4-6.3-8.6-4.8-13.4
	c1.2-4.7,5.5-8,10-9.3C61.2,5.3,68,5.5,73.3,8.7c5.6,3.1,7.5,11.5,3.6,16.7c-1.6,2.1-4.3,3-6.6,4c2.9,7.6,7.3,16.2,15.6,18.6
	c4.8,1.3,8.6-3.5,13.3-3c2.6,0.1,2.4,3.3,2.6,5.2C97.5,56.7,88.1,57.9,81.3,54.6z M118.6,71.9c-0.9,2.7-2,5.8-4.8,7.1
	c-2.7,1.6-5.8,1-8.8,1.1c-6.4-3.2-8.4-12.1-4-17.7c2.5-3.8,7.8-4.1,11.8-2.9C117.8,61.3,118.7,67.3,118.6,71.9z M140.6,76.2
	c-2,3.1-6.6,4-9.5,1.8c-1.7-0.9-1.9-3.7-0.3-4.8c1.4-0.2,2.9-0.3,4.4-0.3c2.3-2.2,2.9-5.4,1.4-8.2c-0.6-0.4-1.7-1.2-2.2-1.6
	c-2.1,0-4.9,0.5-5.3,3c-0.4,3.3-0.1,6.7,0,10.1c0,1.9,1.9,2.9,2.8,4.4c0.5,1.6-1,2.6-1.8,3.8c-1.9,1.9-4,4.6-7,3.8
	c-1.2-2.8,0.5-5.6,0.4-8.4c-0.2-4.5-0.8-9-0.7-13.5c-1-0.5-1.9-0.9-2.9-1.4c-0.1-0.6-0.3-1.7-0.4-2.2c2-2.1,4.1-4.5,7.2-4.7
	c0.4,0.5,1.3,1.4,1.7,1.9c2.8-1.6,6.2-3.4,9.4-1.6C143.8,61.6,144.5,70.8,140.6,76.2z M162.1,67.8c-3.3,1.7-7.1,1.2-10.7,1.2
	c0.1,0.5,0.3,1.5,0.4,2.1c3.9,2.9,7.6-1.2,11.8-1.1c0.1,1.2,0.3,2.5,0.2,3.8c-1.5,2.6-4.7,3.3-7.3,4.2c-5,0.1-10-3.1-10.8-8.2
	c-1.2-3.8-0.1-8.2,2.6-11.1c4.1-4.1,12.2-3.3,14.8,2.2C164.1,63,164.8,66.7,162.1,67.8z M154.8,41.1c0.8-5.2,2.2-11-0.3-16
	c-1.5,0.4-3,0.8-4.6,1.2c-0.4,2.1-1.1,4.2-0.8,6.4c0.3,2.9,3,4.6,4.3,7c-3.5,1.7-7.3,1.7-11.1,1.5c-0.4-0.5-1.2-1.4-1.6-1.9
	c1-1,1.9-2,3-2.9c0.3-0.8,0.6-1.6,0.8-2.4c-0.4-2.2-0.6-4.4-0.8-6.5c-0.8-0.1-2.2-0.4-3-0.6c0-1.5,0.4-3,1-4.4
	c1.7-1.1,3.4-2.3,5.2-3.4c1.1,1.2,1.8,2.7,2.5,4.1c0.1-0.4,0.3-1.3,0.5-1.8c2.4-1.5,5.6-3.6,8.4-1.7c3,2,2.6,6,2.9,9.2
	c-0.1,2.7,2.8,4,3,6.6C161.6,38.2,159.1,42.7,154.8,41.1z M182.5,73.9c-2.6,2.3-6,2.9-9.4,2.3c-1.2,0.6-2.5,1.8-3.9,1.1
	c-2.4-2-3.9-5-3.8-8.1c3.6-1.9,6.4,1.6,9.7,2.7c2.4,1,1.9-2,2.1-3.3c-3.4-1.1-6.8-2.1-10-3.7c-0.4-0.6-1.1-1.7-1.4-2.3
	c0-2.3,0.4-4.7,2.2-6.2c2.7-2.4,6.8,0,9.6-2.3c0.5,0,1.5,0,2.1,0c1.4,2.1,2.4,4.5,3.3,6.9c-2.9,2.6-5.8-0.1-8.4-1.7
	c-0.5,0.1-1.4,0.2-1.9,0.2c0,0.8,0,1.6,0,2.4c3.3,1.5,7.3,1.9,9.9,4.6C184.5,68.6,183.1,71.5,182.5,73.9z M173.3,49.8
	c-2.7-0.5-6.2-0.8-7.6-3.5c-1.2-2.4,1-5.4,3.6-4.9c2.3,1.6,4.2,3.6,6.7,4.8c2.3-0.9,6.4-1.2,5.7-4.7c-1.2-1.7-3.5-1.5-5.4-1.3
	c-2.8,0.2-5.5,0.2-8.3,0.2c-0.7-0.7-1.4-1.4-2.1-2.2c0-0.9,0-1.8,0-2.7c1.1-1,2.2-2,3.3-3c-1.3-1.5-3.2-2.6-3.5-4.6
	c-0.7-2.3,0.6-4.4,1.4-6.4c3.1-1.7,6.4-2.6,9.8-3.1c-0.5-1.7-1.9-3.8-0.3-5.3c2.1-3.9,9.5-2.1,8.4,2.7c-1.4,2.3-4.1,1.2-6.3,1.3
	c2.3,3.1,6.8,6,5.3,10.5c-1.8,4.2-7,4.5-10.9,5.8c-0.2,0.4-0.6,1.3-0.8,1.7c4.1,2.1,8.7-1.2,12.9,0.8c2,0.7,2.8,2.9,3.6,4.6
	C187.3,47.5,179.6,50.2,173.3,49.8z M179.2,26.8c-0.4-1.3-1-2.5-1.8-3.6c-2.3-0.4-5.6-0.6-6.4,2.3c-1,2.2,1.9,2.8,3.1,3.8
	C175.9,28.6,177.6,27.8,179.2,26.8z M152.1,61.4c-0.6,1.2-1.2,2.5-1.8,3.8c2.8-0.1,5.6-0.5,8.3-1.3
	C158.4,60.2,154.7,60.8,152.1,61.4z M106.1,64.3c-2.4,2.1-1.8,5.6-1.3,8.3c1.2,3.5,6.9,3.4,7.9-0.1c1.2-2.8,0.1-5.7-1.2-8.2
	C109.7,64,107.8,63.5,106.1,64.3z M89.9,39.3c2.8-1.5,2.3-5,2-7.6c-0.4-3.1-4.8-4.7-7-2.3c-2,2.1-1.8,5.7-0.6,8.2
	C85.3,39.8,87.9,39.6,89.9,39.3z M26.2,36.1L26.2,36.1C26.2,36.1,26.2,36.1,26.2,36.1L26.2,36.1z M13.4,36.6
	c-1.9,0.7-1.6,2.9-2.1,4.5c2.2,0.2,4.4,0,6.4,1c-0.2-2-0.3-3.9-0.4-5.9C16,36.2,14.7,36.3,13.4,36.6z M17.3,36.2
	c-1.3,0-2.6,0.1-3.9,0.4c-1.9,0.7-1.6,2.9-2.1,4.5c2.2,0.2,4.4,0,6.4,1C17.6,40.1,17.4,38.1,17.3,36.2z M26.2,36.1L26.2,36.1
	C26.2,36.1,26.2,36.1,26.2,36.1L26.2,36.1z M91.9,31.7c-0.4-3.1-4.8-4.7-7-2.3c-2,2.1-1.8,5.7-0.6,8.2c0.9,2.2,3.6,2,5.5,1.7
	C92.7,37.9,92.2,34.3,91.9,31.7z M111.5,64.3c-1.8-0.2-3.7-0.8-5.4,0c-2.4,2.1-1.8,5.6-1.3,8.3c1.2,3.5,6.9,3.4,7.9-0.1
	C113.8,69.7,112.8,66.8,111.5,64.3z M152.1,61.4c-0.6,1.2-1.2,2.5-1.8,3.8c2.8-0.1,5.6-0.5,8.3-1.3
	C158.4,60.2,154.7,60.8,152.1,61.4z M177.4,23.2c-2.3-0.4-5.6-0.6-6.4,2.3c-1,2.2,1.9,2.8,3.1,3.8c1.7-0.7,3.5-1.5,5.1-2.4
	C178.8,25.5,178.2,24.3,177.4,23.2z M177.4,23.2c-2.3-0.4-5.6-0.6-6.4,2.3c-1,2.2,1.9,2.8,3.1,3.8c1.7-0.7,3.5-1.5,5.1-2.4
	C178.8,25.5,178.2,24.3,177.4,23.2z M152.1,61.4c-0.6,1.2-1.2,2.5-1.8,3.8c2.8-0.1,5.6-0.5,8.3-1.3
	C158.4,60.2,154.7,60.8,152.1,61.4z M111.5,64.3c-1.8-0.2-3.7-0.8-5.4,0c-2.4,2.1-1.8,5.6-1.3,8.3c1.2,3.5,6.9,3.4,7.9-0.1
	C113.8,69.7,112.8,66.8,111.5,64.3z M91.9,31.7c-0.4-3.1-4.8-4.7-7-2.3c-2,2.1-1.8,5.7-0.6,8.2c0.9,2.2,3.6,2,5.5,1.7
	C92.7,37.9,92.2,34.3,91.9,31.7z M26.2,36.1L26.2,36.1C26.2,36.1,26.2,36.1,26.2,36.1L26.2,36.1z M17.3,36.2c-1.3,0-2.6,0.1-3.9,0.4
	c-1.9,0.7-1.6,2.9-2.1,4.5c2.2,0.2,4.4,0,6.4,1C17.6,40.1,17.4,38.1,17.3,36.2z M91.9,31.7c-0.4-3.1-4.8-4.7-7-2.3
	c-2,2.1-1.8,5.7-0.6,8.2c0.9,2.2,3.6,2,5.5,1.7C92.7,37.9,92.2,34.3,91.9,31.7z M111.5,64.3c-1.8-0.2-3.7-0.8-5.4,0
	c-2.4,2.1-1.8,5.6-1.3,8.3c1.2,3.5,6.9,3.4,7.9-0.1C113.8,69.7,112.8,66.8,111.5,64.3z M152.1,61.4c-0.6,1.2-1.2,2.5-1.8,3.8
	c2.8-0.1,5.6-0.5,8.3-1.3C158.4,60.2,154.7,60.8,152.1,61.4z M177.4,23.2c-2.3-0.4-5.6-0.6-6.4,2.3c-1,2.2,1.9,2.8,3.1,3.8
	c1.7-0.7,3.5-1.5,5.1-2.4C178.8,25.5,178.2,24.3,177.4,23.2z M177.4,23.2c-2.3-0.4-5.6-0.6-6.4,2.3c-1,2.2,1.9,2.8,3.1,3.8
	c1.7-0.7,3.5-1.5,5.1-2.4C178.8,25.5,178.2,24.3,177.4,23.2z M152.1,61.4c-0.6,1.2-1.2,2.5-1.8,3.8c2.8-0.1,5.6-0.5,8.3-1.3
	C158.4,60.2,154.7,60.8,152.1,61.4z M111.5,64.3c-1.8-0.2-3.7-0.8-5.4,0c-2.4,2.1-1.8,5.6-1.3,8.3c1.2,3.5,6.9,3.4,7.9-0.1
	C113.8,69.7,112.8,66.8,111.5,64.3z M91.9,31.7c-0.4-3.1-4.8-4.7-7-2.3c-2,2.1-1.8,5.7-0.6,8.2c0.9,2.2,3.6,2,5.5,1.7
	C92.7,37.9,92.2,34.3,91.9,31.7z M91.9,31.7c-0.4-3.1-4.8-4.7-7-2.3c-2,2.1-1.8,5.7-0.6,8.2c0.9,2.2,3.6,2,5.5,1.7
	C92.7,37.9,92.2,34.3,91.9,31.7z M111.5,64.3c-1.8-0.2-3.7-0.8-5.4,0c-2.4,2.1-1.8,5.6-1.3,8.3c1.2,3.5,6.9,3.4,7.9-0.1
	C113.8,69.7,112.8,66.8,111.5,64.3z M152.1,61.4c-0.6,1.2-1.2,2.5-1.8,3.8c2.8-0.1,5.6-0.5,8.3-1.3
	C158.4,60.2,154.7,60.8,152.1,61.4z M177.4,23.2c-2.3-0.4-5.6-0.6-6.4,2.3c-1,2.2,1.9,2.8,3.1,3.8c1.7-0.7,3.5-1.5,5.1-2.4
	C178.8,25.5,178.2,24.3,177.4,23.2z M177.4,23.2c-2.3-0.4-5.6-0.6-6.4,2.3c-1,2.2,1.9,2.8,3.1,3.8c1.7-0.7,3.5-1.5,5.1-2.4
	C178.8,25.5,178.2,24.3,177.4,23.2z M152.1,61.4c-0.6,1.2-1.2,2.5-1.8,3.8c2.8-0.1,5.6-0.5,8.3-1.3
	C158.4,60.2,154.7,60.8,152.1,61.4z M111.5,64.3c-1.8-0.2-3.7-0.8-5.4,0c-2.4,2.1-1.8,5.6-1.3,8.3c1.2,3.5,6.9,3.4,7.9-0.1
	C113.8,69.7,112.8,66.8,111.5,64.3z M91.9,31.7c-0.4-3.1-4.8-4.7-7-2.3c-2,2.1-1.8,5.7-0.6,8.2c0.9,2.2,3.6,2,5.5,1.7
	C92.7,37.9,92.2,34.3,91.9,31.7z M91.9,31.7c-0.4-3.1-4.8-4.7-7-2.3c-2,2.1-1.8,5.7-0.6,8.2c0.9,2.2,3.6,2,5.5,1.7
	C92.7,37.9,92.2,34.3,91.9,31.7z M152.1,61.4c-0.6,1.2-1.2,2.5-1.8,3.8c2.8-0.1,5.6-0.5,8.3-1.3C158.4,60.2,154.7,60.8,152.1,61.4z
	 M177.4,23.2c-2.3-0.4-5.6-0.6-6.4,2.3c-1,2.2,1.9,2.8,3.1,3.8c1.7-0.7,3.5-1.5,5.1-2.4C178.8,25.5,178.2,24.3,177.4,23.2z
	 M177.4,23.2c-2.3-0.4-5.6-0.6-6.4,2.3c-1,2.2,1.9,2.8,3.1,3.8c1.7-0.7,3.5-1.5,5.1-2.4C178.8,25.5,178.2,24.3,177.4,23.2z
	 M152.1,61.4c-0.6,1.2-1.2,2.5-1.8,3.8c2.8-0.1,5.6-0.5,8.3-1.3C158.4,60.2,154.7,60.8,152.1,61.4z M91.9,31.7
	c-0.4-3.1-4.8-4.7-7-2.3c-2,2.1-1.8,5.7-0.6,8.2c0.9,2.2,3.6,2,5.5,1.7C92.7,37.9,92.2,34.3,91.9,31.7z M91.9,31.7
	c-0.4-3.1-4.8-4.7-7-2.3c-2,2.1-1.8,5.7-0.6,8.2c0.9,2.2,3.6,2,5.5,1.7C92.7,37.9,92.2,34.3,91.9,31.7z M177.4,23.2
	c-2.3-0.4-5.6-0.6-6.4,2.3c-1,2.2,1.9,2.8,3.1,3.8c1.7-0.7,3.5-1.5,5.1-2.4C178.8,25.5,178.2,24.3,177.4,23.2z M177.4,23.2
	c-2.3-0.4-5.6-0.6-6.4,2.3c-1,2.2,1.9,2.8,3.1,3.8c1.7-0.7,3.5-1.5,5.1-2.4C178.8,25.5,178.2,24.3,177.4,23.2z M91.9,31.7
	c-0.4-3.1-4.8-4.7-7-2.3c-2,2.1-1.8,5.7-0.6,8.2c0.9,2.2,3.6,2,5.5,1.7C92.7,37.9,92.2,34.3,91.9,31.7z M91.9,31.7
	c-0.4-3.1-4.8-4.7-7-2.3c-2,2.1-1.8,5.7-0.6,8.2c0.9,2.2,3.6,2,5.5,1.7C92.7,37.9,92.2,34.3,91.9,31.7z M91.9,31.7
	c-0.4-3.1-4.8-4.7-7-2.3c-2,2.1-1.8,5.7-0.6,8.2c0.9,2.2,3.6,2,5.5,1.7C92.7,37.9,92.2,34.3,91.9,31.7z M91.9,31.7
	c-0.4-3.1-4.8-4.7-7-2.3c-2,2.1-1.8,5.7-0.6,8.2c0.9,2.2,3.6,2,5.5,1.7C92.7,37.9,92.2,34.3,91.9,31.7z M91.9,31.7
	c-0.4-3.1-4.8-4.7-7-2.3c-2,2.1-1.8,5.7-0.6,8.2c0.9,2.2,3.6,2,5.5,1.7C92.7,37.9,92.2,34.3,91.9,31.7z M91.9,31.7
	c-0.4-3.1-4.8-4.7-7-2.3c-2,2.1-1.8,5.7-0.6,8.2c0.9,2.2,3.6,2,5.5,1.7C92.7,37.9,92.2,34.3,91.9,31.7z M91.9,31.7
	c-0.4-3.1-4.8-4.7-7-2.3c-2,2.1-1.8,5.7-0.6,8.2c0.9,2.2,3.6,2,5.5,1.7C92.7,37.9,92.2,34.3,91.9,31.7z M179.2,26.8
	c-1.6,1-3.3,1.7-5.1,2.4c-1.2-1-4-1.6-3.1-3.8c0.8-2.8,4.1-2.7,6.4-2.3C178.2,24.3,178.8,25.5,179.2,26.8z M179.2,26.8
	c-1.6,1-3.3,1.7-5.1,2.4c-1.2-1-4-1.6-3.1-3.8c0.8-2.8,4.1-2.7,6.4-2.3C178.2,24.3,178.8,25.5,179.2,26.8z M89.9,39.3
	c-2,0.3-4.6,0.5-5.5-1.7c-1.2-2.5-1.5-6.1,0.6-8.2c2.1-2.4,6.6-0.8,7,2.3C92.2,34.3,92.7,37.9,89.9,39.3z M89.9,39.3
	c-2,0.3-4.6,0.5-5.5-1.7c-1.2-2.5-1.5-6.1,0.6-8.2c2.1-2.4,6.6-0.8,7,2.3C92.2,34.3,92.7,37.9,89.9,39.3z M17.3,36.2
	c0.1,2,0.2,3.9,0.4,5.9c-2-1-4.2-0.9-6.4-1c0.4-1.6,0.2-3.8,2.1-4.5C14.7,36.3,16,36.2,17.3,36.2z M26.2,36.1
	C26.2,36.1,26.2,36.1,26.2,36.1L26.2,36.1L26.2,36.1z M17.8,42c-2-1-4.2-0.9-6.4-1c0.4-1.6,0.2-3.8,2.1-4.5c1.3-0.3,2.6-0.4,3.9-0.4
	C17.4,38.1,17.6,40.1,17.8,42z M26.2,36.1C26.2,36.1,26.2,36.1,26.2,36.1L26.2,36.1L26.2,36.1z M158.6,63.9
	c-2.7,0.8-5.5,1.1-8.3,1.3c0.6-1.3,1.2-2.5,1.8-3.8C154.7,60.8,158.4,60.2,158.6,63.9z M112.7,72.5c-1,3.5-6.7,3.6-7.9,0.1
	c-0.4-2.8-1-6.3,1.3-8.3c1.7-0.8,3.6-0.2,5.4,0C112.8,66.8,113.8,69.7,112.7,72.5z M158.6,63.9c-2.7,0.8-5.5,1.1-8.3,1.3
	c0.6-1.3,1.2-2.5,1.8-3.8C154.7,60.8,158.4,60.2,158.6,63.9z M112.7,72.5c-1,3.5-6.7,3.6-7.9,0.1c-0.4-2.8-1-6.3,1.3-8.3
	c1.7-0.8,3.6-0.2,5.4,0C112.8,66.8,113.8,69.7,112.7,72.5z M47.6,45.9c0.1,1.2-3.5,1.3-4.5,1c0.2-1.8,1.3-2.4,2.2-2.5
	C46.2,44.3,47.5,44.7,47.6,45.9z"/>
</svg>
